<svg width="16" height="16" viewBox="0 0 16 16" version="1.1" xmlns="http://www.w3.org/2000/svg" xmlns:xlink="http://www.w3.org/1999/xlink">
<title>Vector</title>
<desc>Created using Figma</desc>
<g id="Canvas" transform="translate(3998 2064)">
<g id="Vector">
<use xlink:href="#path0_fill" transform="translate(-3998 -2064)" fill="#000000"/>
<use xlink:href="#path1_fill" transform="translate(-3998 -2064)" fill="#000000"/>
<use xlink:href="#path2_fill" transform="translate(-3998 -2064)" fill="#000000"/>
</g>
</g>
<defs>
<path id="path0_fill" d="M 15.5465 4.86006C 15.482 4.86006 15.4209 4.87181 15.3654 4.89441L 15.284 4.93548L 9.1598 8.11182L 9.02095 8.1831L 9.01909 8.18478C 8.74909 8.35149 8.57141 8.63142 8.57141 8.94995L 8.57141 15.5875C 8.57141 15.8155 8.77316 15.9998 9.02462 15.9998C 9.10241 15.9998 9.17645 15.9815 9.24123 15.9497C 9.24677 15.9463 9.2542 15.943 9.25977 15.9396L 15.5002 12.6291L 15.5095 12.6241C 15.8038 12.4632 16 12.169 16 11.8346L 16 5.2707C 16 5.04359 15.7964 4.86006 15.5465 4.86006Z"/>
<path id="path1_fill" d="M 15.0813 3.09001L 8.59193 0.17107C 8.59193 0.17107 8.21125 0 7.99989 0C 7.78853 0 7.40967 0.17107 7.40967 0.17107L 0.914765 3.09001C 0.914765 3.09001 0.629441 3.20758 0.629441 3.42854C 0.629441 3.6629 0.925872 3.83925 0.925872 3.83925L 7.44671 7.28105L 7.55035 7.33387C 7.6855 7.39412 7.83882 7.42847 7.99989 7.42847C 8.16279 7.42847 8.31829 7.39408 8.45497 7.33219L 8.54565 7.28523L 15.0776 3.83754C 15.0776 3.83754 15.3457 3.6934 15.3457 3.42851C 15.3457 3.1964 15.0813 3.09001 15.0813 3.09001Z"/>
<path id="path2_fill" d="M 6.98095 8.18496L 6.83837 8.11199L 0.715756 4.93566L 0.634326 4.89459C 0.580933 4.87195 0.517968 4.86023 0.453218 4.86023C 0.203323 4.86023 0 5.04373 0 5.27084L 0 11.8348C 0 12.1701 0.195894 12.4634 0.490254 12.6242L 0.497682 12.6293L 6.73841 15.9398C 6.80691 15.9783 6.88837 16 6.97541 16C 7.22502 16 7.42863 15.8156 7.42863 15.5877L 7.42863 8.95013C 7.42859 8.6316 7.25088 8.35167 6.98095 8.18496Z"/>
</defs>
</svg>
