<svg width="35" height="40" viewBox="0 0 35 40" version="1.1" xmlns="http://www.w3.org/2000/svg" xmlns:xlink="http://www.w3.org/1999/xlink">
<title>Discord-Logo-White</title>
<desc>Created using Figma</desc>
<g id="Canvas" transform="translate(-129 -2005)">
<g id="Discord-Logo-White">
<g id="Vector">
<use xlink:href="#path0_fill" transform="translate(140.84 2021.78)" fill="#7289DA"/>
</g>
<g id="Vector">
<use xlink:href="#path1_fill" transform="translate(129 2005)" fill="#7289DA"/>
</g>
</g>
</g>
<defs>
<path id="path0_fill" d="M 2.04 3.05176e-07C 0.9 3.05176e-07 -6.10352e-07 1 -6.10352e-07 2.22C -6.10352e-07 3.44 0.92 4.44 2.04 4.44C 3.18 4.44 4.08 3.44 4.08 2.22C 4.1 1 3.18 3.05176e-07 2.04 3.05176e-07ZM 9.34 3.05176e-07C 8.2 3.05176e-07 7.3 1 7.3 2.22C 7.3 3.44 8.22 4.44 9.34 4.44C 10.48 4.44 11.38 3.44 11.38 2.22C 11.38 1 10.48 3.05176e-07 9.34 3.05176e-07Z"/>
<path id="path1_fill" d="M 30.9 0L 4.1 0C 1.84 0 0 1.84 0 4.12L 0 31.16C 0 33.44 1.84 35.28 4.1 35.28L 26.78 35.28L 25.72 31.58L 28.28 33.96L 30.7 36.2L 35 40L 35 4.12C 35 1.84 33.16 0 30.9 0ZM 23.18 26.12C 23.18 26.12 22.46 25.26 21.86 24.5C 24.48 23.76 25.48 22.12 25.48 22.12C 24.66 22.66 23.88 23.04 23.18 23.3C 22.18 23.72 21.22 24 20.28 24.16C 18.36 24.52 16.6 24.42 15.1 24.14C 13.96 23.92 12.98 23.6 12.16 23.28C 11.7 23.1 11.2 22.88 10.7 22.6C 10.64 22.56 10.58 22.54 10.52 22.5C 10.48 22.48 10.46 22.46 10.44 22.44C 10.08 22.24 9.88 22.1 9.88 22.1C 9.88 22.1 10.84 23.7 13.38 24.46C 12.78 25.22 12.04 26.12 12.04 26.12C 7.62 25.98 5.94 23.08 5.94 23.08C 5.94 16.64 8.82 11.42 8.82 11.42C 11.7 9.26 14.44 9.32 14.44 9.32L 14.64 9.56C 11.04 10.6 9.38 12.18 9.38 12.18C 9.38 12.18 9.82 11.94 10.56 11.6C 12.7 10.66 14.4 10.4 15.1 10.34C 15.22 10.32 15.32 10.3 15.44 10.3C 16.66 10.14 18.04 10.1 19.48 10.26C 21.38 10.48 23.42 11.04 25.5 12.18C 25.5 12.18 23.92 10.68 20.52 9.64L 20.8 9.32C 20.8 9.32 23.54 9.26 26.42 11.42C 26.42 11.42 29.3 16.64 29.3 23.08C 29.3 23.08 27.6 25.98 23.18 26.12Z"/>
</defs>
</svg>
