<svg width="125" height="161" viewBox="0 0 125 161" version="1.1" xmlns="http://www.w3.org/2000/svg" xmlns:xlink="http://www.w3.org/1999/xlink">
<title>Group</title>
<desc>Created using Figma</desc>
<g id="Canvas" transform="translate(177 -1873)">
<g id="Group">
<g id="PA logo">
<g id="Group">
<g id="Vector">
<use xlink:href="#path0_fill" transform="translate(-139.448 1873)" fill="#FFFFFF"/>
</g>
<g id="Vector">
<use xlink:href="#path1_fill" transform="translate(-139.448 1965.19)" fill="#FFFFFF"/>
</g>
</g>
<g id="Group">
<g id="Vector">
<use xlink:href="#path2_fill" transform="translate(-102.819 1917.38)" fill="#FFFFFF"/>
</g>
<g id="Vector">
<use xlink:href="#path3_fill" transform="translate(-177 1917.38)" fill="#FFFFFF"/>
</g>
</g>
</g>
</g>
</g>
<defs>
<path id="path0_fill" d="M 50.2032 43.1222L 25.0862 68.7752L 1.8787e-06 43.1222L 25.0862 1.92115e-06L 50.2032 43.1222Z"/>
<path id="path1_fill" d="M 50.2032 25.6844L 25.0862 0L 0 25.6844L 25.0862 68.8066L 50.2032 25.6844Z"/>
<path id="path2_fill" d="M 31.0576 36.2289L 50.8188 71.7969L 50.2032 72.4264L 35.3977 72.4264L 1.8787e-06 36.2289L 35.3977 -1.92115e-06L 50.2032 -1.92115e-06L 50.8188 0.629519L 31.0576 36.2289Z"/>
<path id="path3_fill" d="M 19.7611 36.2289L -4.69675e-07 71.7969L 0.615611 72.4264L 15.3903 72.4264L 50.8188 36.2289L 15.3903 -1.92115e-06L 0.615611 -1.92115e-06L -4.69675e-07 0.629519L 19.7611 36.2289Z"/>
</defs>
</svg>
