<svg width="993" height="1080" viewBox="0 0 993 1080" version="1.1" xmlns="http://www.w3.org/2000/svg" xmlns:xlink="http://www.w3.org/1999/xlink">
<title>Vector</title>
<desc>Created using Figma</desc>
<g id="Canvas" transform="translate(-7216 725)">
<g id="Vector">
<use xlink:href="#path0_fill" transform="translate(7216 -725)" fill="#C4C4C4"/>
<use xlink:href="#path0_fill" transform="translate(7216 -725)" fill="url(#paint1_linear)"/>
<use xlink:href="#path0_fill" transform="translate(7216 -725)" fill="url(#paint2_linear)"/>
<use xlink:href="#path0_fill" transform="translate(7216 -725)" fill="url(#paint3_linear)"/>
<use xlink:href="#path1_fill" transform="translate(7216 -725)" fill="#C4C4C4"/>
<use xlink:href="#path1_fill" transform="translate(7216 -725)" fill="url(#paint5_linear)"/>
<use xlink:href="#path1_fill" transform="translate(7216 -725)" fill="url(#paint6_linear)"/>
<use xlink:href="#path1_fill" transform="translate(7216 -725)" fill="url(#paint7_linear)"/>
</g>
</g>
<defs>
<linearGradient id="paint1_linear" x1="0" y1="0" x2="1" y2="0" gradientUnits="userSpaceOnUse" gradientTransform="matrix(1003 -1080 96.6497 2797.59 -48.3249 -318.797)">
<stop offset="0" stop-color="#F32C3C"/>
<stop offset="1" stop-color="#FF9712"/>
</linearGradient>
<linearGradient id="paint2_linear" x1="0" y1="0" x2="1" y2="0" gradientUnits="userSpaceOnUse" gradientTransform="matrix(1003 -1080 96.6497 2797.59 -48.3249 -318.797)">
<stop offset="0" stop-color="#5E12FF"/>
<stop offset="1" stop-color="#12B3FF"/>
</linearGradient>
<linearGradient id="paint3_linear" x1="0" y1="0" x2="1" y2="0" gradientUnits="userSpaceOnUse" gradientTransform="matrix(992.291 -1080 992.291 23779.2 -496.145 -10809.6)">
<stop offset="0" stop-color="#F32C3C"/>
<stop offset="1" stop-color="#FF7756"/>
</linearGradient>
<linearGradient id="paint5_linear" x1="0" y1="0" x2="1" y2="0" gradientUnits="userSpaceOnUse" gradientTransform="matrix(1003 -1080 96.6497 2797.59 -48.3249 -318.797)">
<stop offset="0" stop-color="#F32C3C"/>
<stop offset="1" stop-color="#FF9712"/>
</linearGradient>
<linearGradient id="paint6_linear" x1="0" y1="0" x2="1" y2="0" gradientUnits="userSpaceOnUse" gradientTransform="matrix(1003 -1080 96.6497 2797.59 -48.3249 -318.797)">
<stop offset="0" stop-color="#5E12FF"/>
<stop offset="1" stop-color="#12B3FF"/>
</linearGradient>
<linearGradient id="paint7_linear" x1="0" y1="0" x2="1" y2="0" gradientUnits="userSpaceOnUse" gradientTransform="matrix(992.291 -1080 992.291 23779.2 -496.145 -10809.6)">
<stop offset="0" stop-color="#F32C3C"/>
<stop offset="1" stop-color="#FF7756"/>
</linearGradient>
<path id="path0_fill" fill-rule="evenodd" d="M 899.34 1080C 1023.55 740.872 1027.4 357.674 885.885 0L 0 0L 0 1080L 899.34 1080Z"/>
<path id="path1_fill" fill-rule="evenodd" d="M 885.885 0L 0 0L 0 1080L 899.34 1080C 1023.55 740.872 1027.4 357.674 885.885 0Z"/>
</defs>
</svg>
